<?xml version="1.0" encoding="UTF-8"?>
<svg id="Layer_1" data-name="Layer 1" xmlns="http://www.w3.org/2000/svg" xmlns:xlink="http://www.w3.org/1999/xlink" viewBox="0 0 68.96 35.04">
  <defs>
    <style>
      .cls-1 {
        fill: url(#linear-gradient-2);
      }

      .cls-2 {
        fill: #fff;
      }

      .cls-3 {
        fill: url(#linear-gradient-3);
      }

      .cls-4 {
        fill: url(#linear-gradient);
      }
    </style>
    <linearGradient id="linear-gradient" x1="-13.44" y1="22.46" x2="27.99" y2="23.97" gradientUnits="userSpaceOnUse">
      <stop offset="0" stop-color="#06f"/>
      <stop offset="1" stop-color="#00d9a6"/>
    </linearGradient>
    <linearGradient id="linear-gradient-2" x1="-13.09" y1="12.92" x2="28.34" y2="14.43" xlink:href="#linear-gradient"/>
    <linearGradient id="linear-gradient-3" x1="-13.21" y1="16.15" x2="28.22" y2="17.66" xlink:href="#linear-gradient"/>
  </defs>
  <path class="cls-4" d="M18.61,23.38c-.18,2.63-5.79,4.25-6.09.91-.19-2.13.07-3.26,2.39-3.46,1.59-.13,3.84.58,3.7,2.55Z"/>
  <path class="cls-1" d="M16.06,15.08c-.6.58-1.4,1.04-2.2,1.29-.57.18-1.43.36-1.9-.15-.59-.64-.81-2.76-.52-3.55.28-.74,1.19-1.25,1.94-1.37.96-.15,2.19-.15,2.9.63.81.87.57,2.36-.22,3.14Z"/>
  <path class="cls-3" d="M68.8,5.82c-1.05-3.82-7.81-5.33-10.06-1.94-.72,1.07-.6,2.6-.66,3.85-1.68-.61-3.43-.79-5.08,0v-3.62c0-2.22-2.5-3.42-4.36-3.68-1.64-.24-3.8-.42-5.33.37-.28.14-.56.31-.87.31-.59,0-1.03-.54-1.52-.79-1.97-.98-4.53.46-5.75,2.01-.16.2-.38.61-.65.68-.32.08-.5-.31-.76-.47-1.26-.75-2.33-.77-3.77-.64-3.17.28-6.31,2.22-5.41,5.82-.91-1.16-1.73-2.16-3.1-2.79-.85-.39-1.76-.66-2.67-.87-2.46-.56-5.09-.53-7.59-.35-2.28.17-4.56.49-6.79,1.05-1.66.41-3.7,1.17-4.24,2.99-.63,2.14.45,4.67.85,6.76.5,2.64.9,5.3,1.17,7.98.31,2.95.39,5.92,1.16,8.81.14.53.36,1.02.65,1.46.85,1.29,2.28,2.13,3.91,2.24,1.76.12,3.47-.16,5.2-.48,2.35-.44,4.75-.98,7.02-1.74,2.04-.68,4.15-1.64,5.76-3.11.25-.23.5-.83.7-.56.33.44.38.93.94,1.45,1.81,1.68,5.56,1.38,7.59.23.31-.18.96-.83,1.18-.85.16-.01.55.34.81.42,1.59.55,3.41.37,4.98-.22.4-.15,1.61-.96,1.7-.96.1,0,.7.33.96.39,2.45.61,5.75.13,7.41-1.93,1.51,1.41,3.29,1.88,5.3,1.25.4-.12,1.67-.88,1.79-.88s1.05.83,1.41,1c.65.3,1.35.46,2.07.44,2.79-.05,5.45-2.73,5.26-5.57-.05-.67-.25-1.33-.59-1.91-.26-.44-.87-.9-.87-1.45,0-.13.05-.24.09-.36.5-1.25.87-2.45,1.07-3.78.19-1.25.4-2.47.61-3.71.22-1.3.42-2.61.54-3.93.08-.95.19-2.01-.07-2.94ZM24.14,28.29c-2.88,2.42-11.49,4.54-15.23,4.58-2.27.02-3.25-.79-3.6-3.01-.32-2.04-.3-4.36-.52-6.46-.34-3.13-.82-6.52-1.43-9.61-.29-1.46-1.05-3.51-1.09-4.88-.05-1.58,1.84-1.88,3.01-2.16,3.88-.94,11.41-1.86,14.98-.09,2.58,1.28,4.11,4.47,3.67,7.31-.24,1.53-1.51,2.51-2.63,3.39,5.61.67,7.04,7.41,2.86,10.92ZM35.18,27.79c-.52,1.67-5.1,2.29-6.27.8-.89-1.13-.46-4.9-.52-6.46-.13-3.35-.4-6.8-.77-10.15-.18-1.65-.7-3.62-.77-5.2-.02-.33-.04-.82.04-1.12.3-1.16,3.23-1.65,4.26-1.71,1.12-.06,2.04.22,2.28,1.45.45,2.31.16,5.22.28,7.59.14,2.85.31,5.78.66,8.61.16,1.31,1.11,5.22.81,6.18ZM59.29,20.03c-.39-.35-2.1-2.22-2.1-2.6,0-.09.9-1.21,1.04-1.37.11-.13.11-.27.36-.21l.7,4.18ZM39.27,2.17c4.23-.3,4.68,7.35-.04,7.31-4.82-.04-4.04-7.02.04-7.31ZM36.76,26.45c-.18-1.71.28-4.01.26-5.84-.04-2.7-.52-5.41-.63-8.11.14-1.09,1.41-1.57,2.37-1.69,1.48-.19,3.49-.19,3.71,1.68.19,1.69-.07,3.82,0,5.59.11,2.71.6,5.41.89,8.11-.29,2.38-6.24,3.51-6.59.27ZM55.98,26.9c-2.87-.05-3.36-3.82-4.53-5.63-1.1-1.72-1.17-.17-1.12,1,.05,1.24.79,3.46-.12,4.44-.58.63-2.91.89-3.75.83-2.16-.16-2.03-1.8-1.97-3.5.19-5.39.94-13.25-.38-18.39-.24-.91-.89-1.5-.23-2.53.53-.83,2.68-.64,3.6-.59.52.03,1.42.07,1.89.14.1.02.19.04.28.07.43.14.69.45.85.83.08.17.13.36.16.55.04.25.06.5.06.75,0,.06-.01.11-.03.17,0,0,0,0,0,0-.04.15-.1.31-.1.46,0,.44-.02.87-.03,1.31h0c-.04,1-.1,1.99-.16,2.97,0,.06,0,.12,0,.18-.02.48-.05.96-.06,1.45,0,.16,0,.32,0,.48,0,.2,0,.4,0,.6v.13c0,.78.05,1.56.13,2.34.25.06.25-.1.36-.21,1.09-1.1,2.67-4.79,3.78-5.23.96-.39,2.25-.08,3.14.39,1.05.55,1.55.98.95,2.18-.68,1.37-3.55,3.6-3.85,4.9-.33,1.39,1.06,2.36,1.84,3.38.61.78,2.29,2.74,2.61,3.48.72,1.67-1.89,3.09-3.3,3.06ZM63.21,27.15c-3.86.22-3.75-5.32-.47-5.81,4.03-.6,4.12,5.6.47,5.81ZM66.7,7.53c-.19,3.38-1.16,7.08-1.43,10.5-.35,2.22-3.22,2.39-3.99.39-.59-1.51-.32-5.4-.4-7.21-.08-1.76-.54-4.17-.39-5.84.06-.62.22-.93.86-1.04.96-.17,2.68-.04,3.61.26,1.68.54,1.85,1.28,1.75,2.94Z"/>
  <path class="cls-2" d="M21.28,17.37c1.12-.89,2.4-1.87,2.63-3.39.44-2.84-1.09-6.03-3.67-7.31-3.57-1.77-11.1-.85-14.98.09-1.17.28-3.06.59-3.01,2.16.04,1.37.8,3.42,1.09,4.88.61,3.09,1.09,6.48,1.43,9.61.23,2.09.2,4.42.52,6.46.35,2.22,1.33,3.03,3.6,3.01,3.74-.04,12.35-2.16,15.23-4.58,4.19-3.51,2.75-10.25-2.86-10.92ZM11.45,12.68c.28-.74,1.19-1.25,1.94-1.37.96-.15,2.19-.15,2.9.63.81.87.57,2.36-.22,3.14-.6.58-1.4,1.04-2.2,1.29-.57.18-1.43.36-1.9-.15-.59-.64-.81-2.76-.52-3.55ZM12.52,24.3c-.19-2.13.07-3.26,2.39-3.46,1.59-.13,3.84.58,3.7,2.55-.18,2.63-5.79,4.25-6.09.91Z"/>
  <path class="cls-2" d="M50.47,14.96c.24.06.24-.1.36-.21,1.09-1.1,2.67-4.79,3.78-5.23.96-.39,2.24-.08,3.14.39,1.05.56,1.55.98.95,2.18-.68,1.37-3.55,3.6-3.85,4.9-.33,1.39,1.06,2.36,1.84,3.38.6.78,2.29,2.74,2.61,3.48.72,1.67-1.89,3.09-3.3,3.06-2.87-.05-3.36-3.82-4.53-5.63-1.1-1.72-1.17-.17-1.12,1,.05,1.24.79,3.46-.12,4.44-.58.63-2.91.89-3.75.83-2.16-.16-2.03-1.8-1.97-3.5.18-5.39.94-13.25-.38-18.39-.23-.91-.89-1.5-.23-2.53.53-.83,2.68-.64,3.6-.59.52.03,1.42.07,1.89.14.78.12,1.23.83,1.29,1.57.09.95-.04,1.91-.14,2.86s-.09,1.92-.14,2.88c-.04.84-.07,1.69-.07,2.53,0,.24-.04,2.41.14,2.46Z"/>
  <path class="cls-2" d="M31.15,3.96c1.12-.06,2.04.22,2.28,1.45.45,2.31.16,5.22.28,7.59.14,2.85.31,5.78.66,8.61.16,1.31,1.11,5.22.82,6.18-.52,1.67-5.1,2.29-6.27.8-.88-1.13-.46-4.9-.52-6.46-.13-3.35-.4-6.8-.77-10.15-.18-1.65-.7-3.62-.77-5.2-.01-.33-.04-.82.04-1.12.29-1.16,3.24-1.65,4.26-1.71Z"/>
  <path class="cls-2" d="M38.76,10.81c1.48-.19,3.5-.19,3.71,1.68.19,1.69-.07,3.82,0,5.59.11,2.71.6,5.4.88,8.11-.29,2.38-6.24,3.51-6.59.27-.19-1.71.28-4.01.26-5.84-.03-2.7-.53-5.41-.63-8.11.14-1.09,1.41-1.57,2.37-1.69Z"/>
  <path class="cls-2" d="M61.34,4.33c.96-.17,2.68-.04,3.61.26,1.68.54,1.84,1.28,1.75,2.94-.19,3.38-1.16,7.08-1.43,10.5-.36,2.22-3.22,2.39-4,.39-.59-1.52-.32-5.4-.4-7.21s-.54-4.17-.39-5.84c.06-.62.22-.93.86-1.04Z"/>
  <path class="cls-2" d="M39.28,2.17c4.23-.3,4.68,7.34-.04,7.3-4.83-.04-4.04-7.02.04-7.3Z"/>
  <path class="cls-2" d="M62.74,21.34c4.02-.6,4.12,5.6.47,5.81-3.86.22-3.74-5.32-.47-5.81Z"/>
</svg>