<?xml version="1.0" encoding="UTF-8"?>
<svg id="Layer_1" xmlns="http://www.w3.org/2000/svg" version="1.1" xmlns:xlink="http://www.w3.org/1999/xlink" viewBox="0 0 40 40">
  <!-- Generator: Adobe Illustrator 30.0.0, SVG Export Plug-In . SVG Version: 2.1.1 Build 123)  -->
  <defs>
    <style>
      .st0 {
        fill: #fff;
      }

      .st1 {
        fill: url(#linear-gradient);
      }
    </style>
    <linearGradient id="linear-gradient" x1="-272.03" y1="996.52" x2="-271.03" y2="995.53" gradientTransform="translate(10881 39861) scale(40 -40)" gradientUnits="userSpaceOnUse">
      <stop offset="0" stop-color="#06f"/>
      <stop offset="1" stop-color="#00d9a6"/>
    </linearGradient>
  </defs>
  <rect class="st1" width="40" height="40" rx="12" ry="12"/>
  <path class="st0" d="M26.96,7.21h-7.42c-.09,0-.17.05-.2.12l-6.81,13.15c-.08.15.03.34.2.34l4.43.03c.16,0,.27.16.21.31l-4.39,11.3c-.09.24.22.43.39.24l14.06-15.95c.13-.15.03-.38-.17-.38h-4.8c-.18,0-.29-.19-.2-.35l4.89-8.47c.09-.15-.02-.35-.2-.35Z"/>
</svg>




